<mxfile host="app.diagrams.net" modified="2021-08-17T16:04:30.210Z" agent="5.0 (X11)" etag="0DEiyyzSRVx3q8myfwJF" version="14.9.7" type="github">
  <diagram id="3u40vcGfyuTVciJH6JJ8" name="Page-1">
    <mxGraphModel dx="868" dy="460" grid="1" gridSize="10" guides="1" tooltips="1" connect="1" arrows="1" fold="1" page="1" pageScale="1" pageWidth="1100" pageHeight="850" math="0" shadow="0">
      <root>
        <mxCell id="0" />
        <mxCell id="1" parent="0" />
        <mxCell id="E-p27HLasORwlTllJsZY-1" value="" style="rounded=0;whiteSpace=wrap;html=1;" parent="1" vertex="1">
          <mxGeometry x="70" y="100" width="120" height="60" as="geometry" />
        </mxCell>
        <mxCell id="E-p27HLasORwlTllJsZY-2" value="VACCINANDO" style="text;html=1;resizable=0;autosize=1;align=center;verticalAlign=middle;points=[];fillColor=none;strokeColor=none;rounded=0;fontSize=16;" parent="1" vertex="1">
          <mxGeometry x="70" y="120" width="120" height="20" as="geometry" />
        </mxCell>
        <mxCell id="ZrrElcspZVIrCYB-4CRj-1" value="" style="endArrow=none;html=1;" edge="1" parent="1">
          <mxGeometry width="50" height="50" relative="1" as="geometry">
            <mxPoint x="84.5" y="100" as="sourcePoint" />
            <mxPoint x="84.5" y="40" as="targetPoint" />
          </mxGeometry>
        </mxCell>
        <mxCell id="ZrrElcspZVIrCYB-4CRj-2" value="" style="ellipse;whiteSpace=wrap;html=1;aspect=fixed;" vertex="1" parent="1">
          <mxGeometry x="80" y="30" width="10" height="10" as="geometry" />
        </mxCell>
      </root>
    </mxGraphModel>
  </diagram>
</mxfile>
